<?xml version="1.0" encoding="UTF-8"?>
<svg width="16px" height="12px" viewBox="0 0 16 12" version="1.1" xmlns="http://www.w3.org/2000/svg" xmlns:xlink="http://www.w3.org/1999/xlink">
    <!-- Generator: Sketch 52.4 (67378) - http://www.bohemiancoding.com/sketch -->
    <title>merge</title>
    <desc>Created with Sketch.</desc>
    <g id="V7-(Current)" stroke="none" stroke-width="1" fill="none" fill-rule="evenodd">
        <g id="3.1-Conversation----note-@2x" transform="translate(-582.000000, -26.000000)" fill="#818181">
            <path d="M582,37.281 L582,34.914477 C584.059368,34.914477 585.087939,33.6834695 586.082806,32.4929689 C586.325042,32.2028034 586.570236,31.9107128 586.82796,31.6404799 C586.570202,31.3706882 586.325042,31.0784372 586.082806,30.7880311 C585.087939,29.5976909 584.059368,28.366523 582,28.366523 L582,26 C584.867141,26 586.368085,27.7962988 587.463629,29.1080392 C588.113424,29.8858511 588.531088,30.3604231 588.976638,30.4523857 C589.029784,30.4489767 589.081868,30.4446854 589.136577,30.4446854 L589.136577,30.4697916 L592.852393,30.4697916 L593.046514,28.0091402 C593.019393,27.9266426 593.041396,27.8324341 593.100326,27.7792137 C593.158891,27.725873 593.239824,27.7261136 593.297957,27.7802564 L597.304549,31.4969413 C597.344634,31.5342798 597.368,31.5921525 597.368,31.6532737 C597.368,31.7143949 597.344634,31.7723077 597.304549,31.8095259 L593.297957,35.5263311 C593.268675,35.5533624 593.233542,35.5671187 593.198543,35.5671187 C593.163976,35.5671187 593.129409,35.5538437 593.100326,35.5272936 C593.041396,35.4741935 593.019791,35.3798246 593.046514,35.297367 L592.852393,32.8362745 L589.130793,32.8362745 C589.075486,32.8357933 589.026162,32.8319832 588.976671,32.8288951 C588.531088,32.920617 588.113623,33.3952291 587.463662,34.1732415 C586.368085,35.484621 584.867141,37.281 582,37.281 Z" id="merge"></path>
        </g>
    </g>
</svg>